# Blender v2.66 (sub 1) OBJ File: 'Photoframe.blend'
# www.blender.org
mtllib Photoframe.mtl
o Photoframe
v 4.000000 -0.000000 0.000000
v -4.000000 -0.000000 0.000000
v 4.000001 -0.250000 5.999999
v -4.000000 -0.250000 6.000000
v -4.000000 -0.250000 0.000000
v 4.000000 -0.250000 0.000000
v 2.750000 -0.250000 1.250000
v -2.750000 -0.250000 1.250000
v -2.750000 -0.250000 4.750000
v 2.750001 -0.250000 4.749999
v -2.750000 -0.125000 4.750000
v 2.750001 -0.125000 4.749999
v 2.750000 -0.125000 1.250000
v -2.750000 -0.125000 1.250000
v -2.750001 0.000000 4.749999
v 2.750000 -0.000000 4.750001
v 2.750001 -0.000000 1.250000
v -2.750000 0.000000 1.250000
v 4.000000 -0.000000 6.000001
v -4.000001 0.000000 5.999999
v -3.062500 -0.250000 0.937500
v -3.062500 -0.250000 5.062500
v 3.062500 -0.250000 0.937500
v 3.062501 -0.250000 5.062499
v -2.808594 -0.310000 1.191406
v -2.906250 -0.325000 1.093750
v -3.003907 -0.310000 0.996094
v -2.808594 -0.310000 4.808594
v -2.906250 -0.325000 4.906250
v -3.003906 -0.310000 5.003907
v 2.808595 -0.310000 4.808593
v 2.906251 -0.325000 4.906249
v 3.003907 -0.310000 5.003905
v 2.808594 -0.310000 1.191407
v 2.906250 -0.325000 1.093750
v 3.003906 -0.310000 0.996094
v -4.000000 -0.000000 0.000000
v -2.000000 -0.000000 0.000000
v -4.000000 -0.000000 2.000000
v -0.000000 -0.000000 4.000000
v 1.000000 -0.000000 3.000000
v -4.000000 0.125000 0.000000
v -2.000000 0.125000 0.000000
v -4.000000 0.125000 2.000000
v -0.000000 0.125000 4.000000
v 1.000000 0.125000 3.000000
v 4.000000 -0.000000 0.000000
v 4.000000 -0.000000 0.000000
v -4.000000 -0.000000 0.000000
v -4.000000 -0.000000 0.000000
v 4.000001 -0.250000 5.999999
v 4.000001 -0.250000 5.999999
v -4.000000 -0.250000 6.000000
v -4.000000 -0.250000 6.000000
v 4.000000 -0.250000 0.000000
v 4.000000 -0.250000 0.000000
v -4.000000 -0.250000 0.000000
v -4.000000 -0.250000 0.000000
v -2.750000 -0.250000 1.250000
v -2.750000 -0.250000 1.250000
v -2.750000 -0.250000 1.250000
v -2.750000 -0.250000 4.750000
v -2.750000 -0.250000 4.750000
v -2.750000 -0.250000 4.750000
v 2.750000 -0.250000 1.250000
v 2.750000 -0.250000 1.250000
v 2.750000 -0.250000 1.250000
v 2.750001 -0.250000 4.749999
v 2.750001 -0.250000 4.749999
v 2.750001 -0.250000 4.749999
v 2.750001 -0.125000 4.749999
v 2.750001 -0.125000 4.749999
v -2.750000 -0.125000 4.750000
v -2.750000 -0.125000 4.750000
v 2.750000 -0.125000 1.250000
v 2.750000 -0.125000 1.250000
v -2.750000 -0.125000 1.250000
v -2.750000 -0.125000 1.250000
v 4.000000 -0.000000 6.000001
v 4.000000 -0.000000 6.000001
v -4.000001 0.000000 5.999999
v -4.000001 0.000000 5.999999
v -3.062500 -0.250000 0.937500
v -3.062500 -0.250000 0.937500
v -3.062500 -0.250000 5.062500
v -3.062500 -0.250000 5.062500
v 3.062500 -0.250000 0.937500
v 3.062500 -0.250000 0.937500
v 3.062501 -0.250000 5.062499
v 3.062501 -0.250000 5.062499
v -4.000000 -0.000000 0.000000
v -4.000000 -0.000000 0.000000
v -2.000000 -0.000000 0.000000
v -2.000000 -0.000000 0.000000
v -4.000000 -0.000000 2.000000
v -4.000000 -0.000000 2.000000
v -0.000000 -0.000000 4.000000
v -0.000000 -0.000000 4.000000
v 1.000000 -0.000000 3.000000
v 1.000000 -0.000000 3.000000
v -4.000000 0.125000 0.000000
v -4.000000 0.125000 0.000000
v -2.000000 0.125000 0.000000
v -2.000000 0.125000 0.000000
v -4.000000 0.125000 2.000000
v -4.000000 0.125000 2.000000
v -0.000000 0.125000 4.000000
v -0.000000 0.125000 4.000000
v 1.000000 0.125000 3.000000
v 1.000000 0.125000 3.000000
vt 0.468750 0.218750
vt 0.156250 0.406250
vt 0.281250 0.406250
vt 0.406250 0.156250
vt 0.156250 0.281250
vt 0.843750 0.187500
vt 0.687500 0.187500
vt 0.687500 0.171875
vt 0.843750 0.171875
vt 0.093750 0.093750
vt 0.046876 0.093750
vt 0.046875 0.843750
vt 0.093750 0.843750
vt 0.000000 0.656250
vt 0.046875 0.656250
vt 0.046875 0.093750
vt 0.000000 0.093750
vt 0.000001 0.093750
vt 0.000001 0.656250
vt 0.156250 0.843750
vt 0.843750 0.406250
vt 0.843750 0.843750
vt 0.000000 1.000000
vt 0.154688 0.845312
vt 0.845312 0.845312
vt 1.000000 1.000000
vt 0.845312 0.404687
vt 1.000000 0.250000
vt 0.845312 0.845313
vt 0.845312 0.404688
vt 0.500000 0.187500
vt 0.500000 0.406250
vt 0.883984 0.883984
vt 0.883984 0.366016
vt 0.116016 0.883984
vt 0.876733 0.876733
vt 0.876733 0.373267
vt 0.864648 0.864648
vt 0.864648 0.385352
vt 0.852564 0.852563
vt 0.852563 0.397437
vt 0.123267 0.876733
vt 0.135352 0.864648
vt 0.147437 0.852563
vt 0.845313 0.845312
vn 0.000000 -1.000000 0.000000
vn 0.000000 1.000000 0.000000
vn 0.707107 0.000000 0.707107
vn -1.000000 -0.000000 0.000000
vn -0.447214 0.000000 0.894427
vn 0.707107 0.000000 -0.707107
vn -0.000000 0.000000 -1.000000
vn 0.000000 0.000000 0.999969
vn 0.000000 0.000000 1.000000
vn 1.000000 0.000000 0.000000
vn -0.999969 0.000000 0.000000
vn 0.000000 0.999969 0.000000
vn 0.000000 -0.999969 0.000000
vn -0.715415 -0.698660 0.000000
vn -0.323893 -0.888913 -0.323893
vn -0.323893 -0.888913 0.323893
vn -0.038057 -0.998535 -0.038057
vn -0.038057 -0.998535 0.038057
vn 0.169286 -0.970885 0.169286
vn 0.169286 -0.970885 -0.169286
vn 0.715415 -0.698660 0.000000
vn 0.000000 -0.698660 -0.715415
vn 0.323893 -0.888913 -0.323893
vn 0.038057 -0.998535 -0.038057
vn -0.169286 -0.970885 0.169286
vn 0.000000 -0.698660 0.715415
vn 0.323893 -0.888913 0.323893
vn 0.038057 -0.998535 0.038057
vn -0.169286 -0.970885 -0.169286
usemtl Photoframe
s off
f 41/1/1 37/2/1 38/3/1
f 40/4/1 39/5/1 37/2/1
f 37/2/1 41/1/1 40/4/1
f 46/1/2 43/3/2 42/2/2
f 45/4/2 42/2/2 44/5/2
f 42/2/2 45/4/2 46/1/2
f 97/6/3 99/7/3 109/8/3 107/9/3
f 91/6/4 95/7/4 105/8/4 101/9/4
f 96/6/5 98/7/5 108/8/5 106/9/5
f 93/7/6 103/8/6 110/9/6 100/6/6
f 92/7/7 102/8/7 104/9/7 94/6/7
s 1
f 81/10/8 4/11/9 3/12/9 79/13/9
f 6/14/10 47/15/10 80/16/10 51/17/10
f 1/13/7 55/12/7 5/16/7 2/10/7
f 82/16/4 49/15/11 57/14/4 53/17/4
f 62/16/7 11/10/7 12/13/7 68/12/7
f 10/18/4 71/16/4 13/15/4 65/19/4
f 7/12/9 75/13/9 14/10/9 59/16/9
f 9/17/10 8/14/10 77/15/10 73/16/10
f 74/20/1 78/2/1 76/21/1 72/22/1
f 19/23/12 16/24/2 15/25/2 20/26/2
f 20/26/2 15/25/2 18/27/2 50/28/12
f 17/29/2 48/26/2 50/23/12 18/24/2
f 19/28/12 48/26/2 17/29/2 16/30/2
f 15/31/2 16/6/2 17/21/2 18/32/2
f 58/26/1 21/33/1 22/34/1 54/28/1
f 56/23/1 23/35/1 21/33/1 58/26/1
f 52/26/13 24/33/1 23/34/1 56/28/1
f 54/23/1 22/35/1 24/33/1 52/26/13
f 83/33/14 27/36/15 30/37/16 85/34/14
f 27/36/15 26/38/17 29/39/18 30/37/16
f 26/38/17 25/40/19 28/41/20 29/39/18
f 25/40/19 60/29/21 63/30/21 28/41/20
f 87/35/22 36/42/23 27/36/15 84/33/22
f 36/42/23 35/43/24 26/38/17 27/36/15
f 35/43/24 34/44/25 25/40/19 26/38/17
f 34/44/25 66/24/26 61/29/26 25/40/19
f 89/33/21 33/36/27 36/37/23 88/34/21
f 33/36/27 32/38/28 35/39/24 36/37/23
f 32/38/28 31/40/29 34/41/25 35/39/24
f 31/40/29 69/45/14 67/27/14 34/41/25
f 86/35/26 30/42/16 33/36/27 90/33/26
f 30/42/16 29/43/18 32/38/28 33/36/27
f 29/43/18 28/44/20 31/40/29 32/38/28
f 28/44/20 64/24/22 70/45/22 31/40/29
